<svg width="20" height="16" viewBox="0 0 20 16" fill="none" xmlns="http://www.w3.org/2000/svg">
<path fill-rule="evenodd" clip-rule="evenodd" d="M12 2.00003C12 1.21897 11.5453 0.509374 10.8357 0.183003C10.1261 -0.143368 9.29144 -0.0267911 8.69842 0.481516L5.76015 3.00003L2 3.00003C0.895431 3.00003 0 3.89546 0 5.00003V11C0 12.1046 0.895432 13 2 13H5.76015L8.69842 15.5185C9.29144 16.0268 10.1261 16.1434 10.8357 15.8171C11.5453 15.4907 12 14.7811 12 14L12 2.00003ZM10 2.00003V4.63418L10 11.3659L10 14L8 12.2857L6.78087 11.2408C6.59963 11.0854 6.36879 11 6.13008 11H4H2L2 9.00003L2 7.00003L2 5.00003H4L6.13008 5.00003C6.36879 5.00003 6.59963 4.91464 6.78087 4.75929L8 3.71431L10 2.00003ZM17.5924 2.08724C18.0966 1.86198 18.688 2.08815 18.9133 2.59241L18.9142 2.59446L18.9155 2.59735L18.9191 2.60558L18.9305 2.63179C18.9398 2.65353 18.9526 2.68377 18.9683 2.72208C18.9997 2.79868 19.043 2.9077 19.0942 3.04575C19.1964 3.32158 19.3305 3.71492 19.4641 4.19842C19.7301 5.16114 20.0002 6.50388 20.0002 8.00028C20.0002 9.49668 19.7301 10.8394 19.4641 11.8021C19.3305 12.2856 19.1964 12.679 19.0942 12.9548C19.043 13.0929 18.9997 13.2019 18.9683 13.2785C18.9526 13.3168 18.9398 13.347 18.9305 13.3688L18.9191 13.395L18.9155 13.4032L18.9142 13.4061L18.9137 13.4072C18.9136 13.4074 18.9133 13.4081 18.0002 13.0003L18.9133 13.4081C18.688 13.9124 18.0966 14.1386 17.5924 13.9133C17.0883 13.6881 16.8621 13.097 17.087 12.5928L17.0925 12.5802C17.0978 12.5678 17.1065 12.5472 17.1181 12.5189C17.1414 12.4623 17.1762 12.3749 17.2188 12.2599C17.3041 12.0297 17.42 11.6908 17.5364 11.2695C17.7704 10.4226 18.0002 9.2653 18.0002 8.00028C18.0002 6.73525 17.7704 5.57799 17.5364 4.73106C17.42 4.30974 17.3041 3.97085 17.2188 3.74065C17.1762 3.62569 17.1414 3.53825 17.1181 3.48164C17.1065 3.45335 17.0978 3.43279 17.0925 3.4204L17.0871 3.40798C16.8622 2.90381 17.0883 2.31244 17.5924 2.08724ZM14.6378 4.06829C15.1526 3.86812 15.7321 4.12312 15.9323 4.63785C15.9322 4.63774 15.9322 4.63774 15.8158 4.68305C15.6996 4.72828 15.4673 4.81869 15.003 4.99925L15.9323 4.63785L15.933 4.63973L15.9339 4.64209L15.9363 4.64825L15.943 4.66622C15.9484 4.68069 15.9555 4.70011 15.9641 4.72429C15.9813 4.77261 16.0044 4.84001 16.0313 4.92477C16.0852 5.09412 16.155 5.33386 16.2241 5.63021C16.3619 6.22057 16.5003 7.04867 16.5003 8.0003C16.5003 8.95193 16.3619 9.78002 16.2241 10.3704C16.155 10.6667 16.0852 10.9065 16.0313 11.0758C16.0044 11.1606 15.9813 11.228 15.9641 11.2763C15.9555 11.3005 15.9484 11.3199 15.943 11.3344L15.9363 11.3523L15.9339 11.3585L15.933 11.3609L15.9326 11.3619L15.0003 11.0003C15.9323 11.3627 15.9325 11.3621 15.9326 11.3619C15.7324 11.8766 15.1526 12.1325 14.6378 11.9323C14.124 11.7325 13.869 11.1546 14.0672 10.6406L14.0687 10.6365L14.0794 10.6071C14.0896 10.5784 14.1056 10.532 14.1255 10.4694C14.1653 10.3441 14.2206 10.1553 14.2764 9.91592C14.3887 9.43486 14.5003 8.76295 14.5003 8.0003C14.5003 7.23764 14.3887 6.56573 14.2764 6.08467C14.2206 5.84531 14.1653 5.65648 14.1255 5.53118C14.1056 5.46862 14.0896 5.42218 14.0794 5.3935L14.0687 5.36409L14.0672 5.36001C13.869 4.84596 14.124 4.26811 14.6378 4.06829Z" fill="#AE00FF"/>
</svg>
