<svg width="20" height="14" viewBox="0 0 20 14" fill="none" xmlns="http://www.w3.org/2000/svg">
<path fill-rule="evenodd" clip-rule="evenodd" d="M0 3C0 1.34315 1.34315 0 3 0H12C13.6302 0 14.9567 1.30024 14.999 2.92021L16.7506 1.51889C18.0601 0.471267 20 1.40361 20 3.08062V10.9194C20 12.5964 18.0601 13.5287 16.7506 12.4811L14.999 11.0798C14.9567 12.6998 13.6302 14 12 14H3C1.34315 14 0 12.6569 0 11V3ZM3 2C2.44772 2 2 2.44772 2 3V11C2 11.5523 2.44772 12 3 12H12C12.5523 12 13 11.5523 13 11V9C13 8.61559 13.2203 8.26522 13.5668 8.0987C13.9133 7.93218 14.3245 7.979 14.6247 8.21913L18 10.9194V3.08063L14.6247 5.78087C14.3245 6.021 13.9133 6.06782 13.5668 5.9013C13.2203 5.73478 13 5.38441 13 5V3C13 2.44772 12.5523 2 12 2H3Z" fill="#AE00FF"/>
</svg>
