<svg width="25" height="26" viewBox="0 0 25 26" fill="none" xmlns="http://www.w3.org/2000/svg">
<path d="M14.8458 26.0001H10.156C9.55057 26.0001 9.02675 25.575 8.8972 24.9783L8.37281 22.5291C7.67327 22.2198 7.00996 21.8331 6.3951 21.376L4.02829 22.1365C3.45108 22.3222 2.82361 22.0771 2.52085 21.5476L0.170786 17.4513C-0.128657 16.9215 -0.0254929 16.2533 0.419449 15.8406L2.25544 14.1506C2.17194 13.385 2.17194 12.6125 2.25544 11.847L0.419449 10.1609C-0.0261483 9.74794 -0.129353 9.0789 0.170786 8.54886L2.51569 4.44996C2.81845 3.92047 3.44593 3.67534 4.02314 3.86106L6.38995 4.62156C6.7044 4.38646 7.03175 4.16945 7.37043 3.97156C7.69555 3.78656 8.03014 3.61906 8.37281 3.46976L8.89849 1.02316C9.02742 0.42642 9.55066 0.000703746 10.156 6.10352e-05H14.8458C15.4511 0.000703746 15.9744 0.42642 16.1033 1.02316L16.6341 3.47106C16.9959 3.63163 17.3482 3.81306 17.6893 4.01446C18.0075 4.20012 18.315 4.40367 18.6105 4.62416L20.9786 3.86366C21.5555 3.67863 22.1822 3.92367 22.4848 4.45256L24.8297 8.55146C25.1291 9.08119 25.026 9.74943 24.581 10.1622L22.745 11.8522C22.8285 12.6177 22.8285 13.3902 22.745 14.1558L24.581 15.8458C25.026 16.2585 25.1291 16.9267 24.8297 17.4565L22.4848 21.5554C22.1822 22.0843 21.5555 22.3293 20.9786 22.1443L18.6105 21.3838C18.3109 21.6064 17.9995 21.8126 17.6777 22.0013C17.3399 22.1987 16.9915 22.3771 16.6341 22.5356L16.1033 24.9783C15.9738 25.5745 15.4507 25.9996 14.8458 26.0001ZM6.85764 18.4978L7.91414 19.2778C8.1523 19.4548 8.40053 19.6175 8.65755 19.7653C8.89939 19.9066 9.14839 20.035 9.40354 20.1501L10.6056 20.6818L11.1944 23.4001H13.8099L14.3987 20.6805L15.6008 20.1488C16.1256 19.9153 16.6237 19.625 17.0863 19.283L18.1441 18.503L20.7738 19.348L22.0815 17.0626L20.042 15.1867L20.1863 13.8711C20.2496 13.2956 20.2496 12.7149 20.1863 12.1395L20.042 10.8239L22.0828 8.94406L20.7738 6.65736L18.1441 7.50236L17.0863 6.72236C16.6235 6.37878 16.1255 6.08634 15.6008 5.85006L14.3987 5.31836L13.8099 2.60006H11.1944L10.6031 5.31966L9.40354 5.85006C9.14819 5.96322 8.89915 6.09037 8.65755 6.23096C8.40211 6.37829 8.15519 6.54018 7.918 6.71586L6.86022 7.49586L4.23186 6.65086L2.92154 8.94406L4.9611 10.8174L4.8168 12.1343C4.75341 12.7097 4.75341 13.2904 4.8168 13.8659L4.9611 15.1815L2.92154 17.0574L4.22928 19.3428L6.85764 18.4978ZM12.4957 18.2001C9.64945 18.2001 7.34208 15.8719 7.34208 13.0001C7.34208 10.1282 9.64945 7.80006 12.4957 7.80006C15.342 7.80006 17.6494 10.1282 17.6494 13.0001C17.6458 15.8705 15.3405 18.1965 12.4957 18.2001ZM12.4957 10.4001C11.088 10.4015 9.94195 11.5426 9.92178 12.9628C9.90161 14.383 11.0148 15.5568 12.4219 15.5989C13.829 15.6411 15.0092 14.536 15.0726 13.1171V13.6371V13.0001C15.0726 11.5641 13.9189 10.4001 12.4957 10.4001Z" fill="#AE00FF"/>
</svg>
