<svg width="370" height="702" viewBox="0 0 370 702" fill="none" xmlns="http://www.w3.org/2000/svg">
<path d="M358 572.002H345C345 571.737 344.895 571.483 344.707 571.296C344.614 571.202 344.504 571.128 344.383 571.078C344.262 571.028 344.131 571.002 344 571.002H340C339.735 571.002 339.48 571.108 339.293 571.295C339.105 571.483 339 571.737 339 572.002H335C335 571.737 334.895 571.483 334.707 571.296C334.615 571.202 334.504 571.128 334.383 571.078C334.262 571.027 334.131 571.002 334 571.002H330C329.735 571.002 329.48 571.108 329.293 571.295C329.105 571.483 329 571.737 329 572.002H325C325 571.737 324.895 571.483 324.708 571.296C324.615 571.202 324.505 571.128 324.383 571.078C324.262 571.028 324.132 571.002 324 571.002H320C319.735 571.002 319.48 571.108 319.293 571.295C319.105 571.483 319 571.737 319 572.002H315C315 571.737 314.895 571.483 314.708 571.296C314.615 571.202 314.505 571.128 314.383 571.078C314.262 571.028 314.132 571.002 314 571.002H310C309.735 571.002 309.48 571.108 309.293 571.295C309.105 571.483 309 571.737 309 572.002H305C305 571.737 304.895 571.483 304.707 571.296C304.52 571.108 304.265 571.003 304 571.002H300C299.735 571.002 299.48 571.108 299.293 571.295C299.105 571.483 299 571.737 299 572.002H295C295 571.737 294.895 571.483 294.707 571.296C294.614 571.202 294.504 571.129 294.383 571.078C294.262 571.028 294.131 571.002 294 571.002H290C289.735 571.002 289.48 571.108 289.293 571.295C289.105 571.483 289 571.737 289 572.002H285C285 571.737 284.895 571.483 284.707 571.296C284.52 571.108 284.265 571.003 284 571.002H280C279.735 571.002 279.48 571.108 279.293 571.295C279.105 571.483 279 571.737 279 572.002H275C275 571.737 274.895 571.483 274.707 571.296C274.614 571.202 274.504 571.128 274.383 571.078C274.262 571.028 274.131 571.002 274 571.002H270C269.735 571.002 269.48 571.108 269.293 571.295C269.105 571.483 269 571.737 269 572.002H265C265 571.737 264.895 571.483 264.708 571.296C264.615 571.203 264.505 571.129 264.383 571.078C264.262 571.028 264.132 571.002 264 571.002H260C259.735 571.002 259.48 571.108 259.293 571.295C259.105 571.483 259 571.737 259 572.002H255C255 571.737 254.895 571.483 254.707 571.296C254.614 571.202 254.504 571.128 254.383 571.078C254.262 571.028 254.131 571.002 254 571.002H251C251.005 568.596 250.523 566.213 249.585 563.996C248.682 561.858 247.372 559.915 245.728 558.276C244.089 556.632 242.146 555.322 240.007 554.418C237.79 553.48 235.407 552.998 233 553.002H139C136.593 552.998 134.21 553.479 131.993 554.417C129.854 555.32 127.911 556.63 126.272 558.274C124.628 559.914 123.318 561.857 122.415 563.995C121.477 566.212 120.995 568.595 121 571.002H118C117.735 571.002 117.48 571.108 117.293 571.295C117.105 571.483 117 571.737 117 572.002H113C113 571.871 112.975 571.741 112.924 571.62C112.874 571.499 112.8 571.389 112.707 571.297C112.614 571.203 112.504 571.129 112.383 571.079C112.262 571.028 112.131 571.002 112 571.002H108C107.735 571.002 107.48 571.108 107.293 571.295C107.105 571.483 107 571.737 107 572.002H103C103 571.871 102.975 571.741 102.924 571.62C102.874 571.499 102.8 571.389 102.707 571.297C102.614 571.203 102.504 571.129 102.383 571.078C102.262 571.028 102.131 571.002 102 571.002H98C97.7348 571.002 97.4805 571.108 97.2929 571.295C97.1054 571.483 97 571.737 97 572.002H93C93.0004 571.871 92.9746 571.741 92.9243 571.62C92.874 571.499 92.8001 571.389 92.707 571.297C92.6145 571.203 92.5044 571.129 92.383 571.079C92.2617 571.028 92.1315 571.002 92 571.002H88C87.7348 571.002 87.4805 571.108 87.2929 571.295C87.1054 571.483 87 571.737 87 572.002H83C83.0006 571.871 82.9751 571.741 82.925 571.62C82.8749 571.499 82.8011 571.389 82.708 571.297C82.6154 571.203 82.5051 571.129 82.3836 571.078C82.262 571.028 82.1316 571.002 82 571.002H78C77.7348 571.002 77.4805 571.108 77.2929 571.295C77.1054 571.483 77 571.737 77 572.002H73C73.0004 571.871 72.9748 571.741 72.9247 571.62C72.8746 571.499 72.8009 571.389 72.708 571.297C72.6154 571.203 72.505 571.129 72.3835 571.078C72.262 571.028 72.1316 571.002 72 571.002H68C67.7348 571.002 67.4805 571.108 67.2929 571.295C67.1054 571.483 67 571.737 67 572.002H63C63.0005 571.871 62.9749 571.741 62.9246 571.62C62.8743 571.499 62.8003 571.389 62.707 571.297C62.6145 571.203 62.5044 571.129 62.383 571.078C62.2616 571.028 62.1315 571.002 62 571.002H58C57.7348 571.002 57.4805 571.108 57.2929 571.295C57.1054 571.483 57 571.737 57 572.002H53C53.0005 571.871 52.9749 571.741 52.9248 571.62C52.8746 571.499 52.801 571.389 52.708 571.297C52.6154 571.203 52.5051 571.129 52.3836 571.078C52.262 571.028 52.1316 571.002 52 571.002H48C47.7348 571.002 47.4805 571.108 47.2929 571.295C47.1054 571.483 47 571.737 47 572.002H43C43.0004 571.871 42.9746 571.741 42.9243 571.62C42.874 571.499 42.8001 571.389 42.707 571.297C42.6145 571.203 42.5044 571.129 42.383 571.079C42.2617 571.028 42.1315 571.002 42 571.002H38C37.7348 571.002 37.4805 571.108 37.2929 571.295C37.1054 571.483 37 571.737 37 572.002H33C33.0004 571.871 32.9748 571.741 32.9247 571.62C32.8746 571.499 32.8009 571.389 32.708 571.297C32.6154 571.203 32.505 571.129 32.3835 571.078C32.262 571.028 32.1316 571.002 32 571.002H28C27.7348 571.002 27.4805 571.108 27.2929 571.295C27.1054 571.483 27 571.737 27 572.002H13C13.0047 570.294 12.6706 568.603 12.0169 567.025C11.3633 565.447 10.4031 564.014 9.19204 562.809C7.98771 561.599 6.55519 560.639 4.97738 559.985C3.39957 559.332 1.70779 558.998 1.99097e-05 559.002V20.0025C-0.00494628 17.3281 0.920222 13.7606 1.57201 12.2174C2.34218 10.3939 4.0734 7.40854 5.85799 5.86049C7.13007 4.75702 11.4452 0.0025672 23.5 0.00241951C26 0.00238888 30.326 -0.00303374 33 0.00245685H338C340.674 -0.00311348 355.322 0.5316 357.785 1.57448C360.162 2.57815 362.321 4.03376 364.143 5.86049C365.97 7.68201 367.426 9.8409 368.43 12.2174C369.472 14.6804 370.006 17.3283 370 20.0025V559.041C366.745 559.287 363.703 560.754 361.483 563.147C359.241 565.551 357.996 568.716 358 572.002ZM153 12.0025C152.204 12.0025 151.441 12.3185 150.879 12.8811C150.316 13.4437 150 14.2068 150 15.0025C150 15.7981 150.316 16.5612 150.879 17.1238C151.441 17.6864 152.204 18.0025 153 18.0025H219C219.796 18.0025 220.559 17.6864 221.121 17.1238C221.684 16.5612 222 15.7981 222 15.0025C222 14.2068 221.684 13.4437 221.121 12.8811C220.559 12.3185 219.796 12.0025 219 12.0025H153Z" fill="black"/>
<path d="M256 572.002H255C255 571.737 254.895 571.483 254.707 571.296C254.614 571.202 254.504 571.128 254.383 571.078C254.262 571.028 254.131 571.002 254 571.002H250C249.735 571.002 249.48 571.108 249.293 571.295C249.105 571.483 249 571.737 249 572.002H245C245 571.737 244.895 571.483 244.707 571.296C244.614 571.202 244.504 571.128 244.383 571.078C244.262 571.027 244.131 571.002 244 571.002H240C239.735 571.002 239.48 571.108 239.293 571.295C239.105 571.483 239 571.737 239 572.002H235C235 571.737 234.895 571.483 234.708 571.296C234.615 571.202 234.505 571.128 234.383 571.078C234.262 571.028 234.132 571.002 234 571.002H230C229.735 571.002 229.48 571.108 229.293 571.295C229.105 571.483 229 571.737 229 572.002H225C225 571.737 224.895 571.483 224.708 571.296C224.615 571.202 224.505 571.128 224.383 571.078C224.262 571.028 224.132 571.002 224 571.002H220C219.735 571.002 219.48 571.108 219.293 571.295C219.105 571.483 219 571.737 219 572.002H215C215 571.737 214.895 571.483 214.707 571.296C214.519 571.108 214.265 571.003 214 571.002H210C209.735 571.002 209.48 571.108 209.293 571.295C209.105 571.483 209 571.737 209 572.002H205C205 571.737 204.895 571.483 204.707 571.296C204.614 571.202 204.504 571.129 204.383 571.078C204.261 571.028 204.131 571.002 204 571.002H200C199.735 571.002 199.48 571.108 199.293 571.295C199.105 571.483 199 571.737 199 572.002H195C195 571.737 194.895 571.483 194.707 571.296C194.519 571.108 194.265 571.003 194 571.002H190C189.735 571.002 189.48 571.108 189.293 571.295C189.105 571.483 189 571.737 189 572.002H185C185 571.737 184.895 571.483 184.707 571.296C184.614 571.202 184.504 571.128 184.383 571.078C184.262 571.028 184.131 571.002 184 571.002H180C179.735 571.002 179.48 571.108 179.293 571.295C179.105 571.483 179 571.737 179 572.002H175C175 571.737 174.895 571.483 174.708 571.296C174.615 571.203 174.505 571.129 174.383 571.078C174.262 571.028 174.131 571.002 174 571.002H170C169.735 571.002 169.48 571.108 169.293 571.295C169.105 571.483 169 571.737 169 572.002H165C165 571.737 164.895 571.483 164.707 571.296C164.614 571.202 164.504 571.128 164.383 571.078C164.262 571.028 164.131 571.002 164 571.002H161C161.005 568.596 160.523 566.213 159.585 563.996C158.682 561.858 157.372 559.915 155.728 558.276C154.089 556.632 152.146 555.322 150.007 554.418C147.79 553.48 145.407 552.998 143 553.002L243 366.002C240.593 365.998 238.21 366.479 235.993 367.417C233.854 368.32 231.911 369.63 230.272 371.274C228.628 372.914 227.318 374.857 226.415 376.995C225.477 379.212 224.995 381.595 225 384.002H222C221.735 384.002 221.48 384.108 221.293 384.295C221.105 384.483 221 384.737 221 385.002H217C217 384.871 216.975 384.741 216.924 384.62C216.874 384.499 216.8 384.389 216.707 384.296C216.614 384.203 216.504 384.129 216.383 384.079C216.262 384.028 216.131 384.002 216 384.002H212C211.735 384.002 211.48 384.108 211.293 384.295C211.105 384.483 211 384.737 211 385.002H207C207 384.871 206.975 384.741 206.924 384.62C206.874 384.499 206.8 384.389 206.707 384.296C206.614 384.203 206.504 384.129 206.383 384.079C206.262 384.028 206.131 384.002 206 384.002H202C201.735 384.002 201.48 384.108 201.293 384.295C201.105 384.483 201 384.737 201 385.002H197C197 384.871 196.975 384.741 196.924 384.62C196.874 384.499 196.8 384.389 196.707 384.296C196.614 384.203 196.504 384.129 196.383 384.079C196.262 384.028 196.131 384.002 196 384.002H192C191.735 384.002 191.48 384.108 191.293 384.295C191.105 384.483 191 384.737 191 385.002H187C187.001 384.871 186.975 384.741 186.925 384.62C186.875 384.499 186.801 384.389 186.708 384.296C186.615 384.203 186.505 384.129 186.384 384.078C186.262 384.028 186.132 384.002 186 384.002H182C181.735 384.002 181.48 384.108 181.293 384.295C181.105 384.483 181 384.737 181 385.002H177C177 384.871 176.975 384.741 176.925 384.62C176.875 384.499 176.801 384.389 176.708 384.296C176.615 384.203 176.505 384.129 176.383 384.078C176.262 384.028 176.132 384.002 176 384.002H172C171.735 384.002 171.48 384.108 171.293 384.295C171.105 384.483 171 384.737 171 385.002H167C167 384.871 166.975 384.741 166.925 384.62C166.874 384.499 166.8 384.389 166.707 384.296C166.614 384.203 166.504 384.129 166.383 384.079C166.262 384.028 166.131 384.002 166 384.002H162C161.735 384.002 161.48 384.108 161.293 384.295C161.105 384.483 161 384.737 161 385.002H157C157 384.871 156.975 384.741 156.925 384.62C156.875 384.499 156.801 384.389 156.708 384.296C156.615 384.203 156.505 384.129 156.384 384.078C156.262 384.028 156.132 384.002 156 384.002H152C151.735 384.002 151.48 384.108 151.293 384.295C151.105 384.483 151 384.737 151 385.002H147C147 384.871 146.975 384.741 146.924 384.62C146.874 384.499 146.8 384.389 146.707 384.296C146.614 384.203 146.504 384.129 146.383 384.079C146.262 384.028 146.131 384.002 146 384.002H142C141.735 384.002 141.48 384.108 141.293 384.295C141.105 384.483 141 384.737 141 385.002H137C137 384.871 136.975 384.741 136.925 384.62C136.875 384.499 136.801 384.389 136.708 384.296C136.615 384.203 136.505 384.129 136.383 384.078C136.262 384.028 136.132 384.002 136 384.002H132C131.735 384.002 131.48 384.108 131.293 384.295C131.105 384.483 131 384.737 131 385.002H130C130.005 383.294 129.671 381.602 129.017 380.025C128.363 378.447 127.403 377.014 126.192 375.809C124.988 374.599 123.555 373.639 121.977 372.985C120.4 372.332 118.708 371.998 117 372.002L131 40.0025C130.995 37.3281 131.53 34.6803 132.572 32.2174C133.576 29.841 135.031 27.6821 136.858 25.8605C138.68 24.0335 140.839 22.5779 143.216 21.5745C145.678 20.5317 148.326 19.997 151 20.0025H248C250.674 19.9969 253.322 20.5316 255.785 21.5745C258.162 22.5781 260.321 24.0338 262.143 25.8605C263.97 27.682 265.426 29.8409 266.43 32.2174C267.472 34.6804 268.006 37.3283 268 40.0025V559.041C264.745 559.287 261.703 560.754 259.483 563.147C257.241 565.551 255.996 568.716 256 572.002ZM138 32.0025C137.204 32.0025 136.441 32.3185 135.879 32.8811C135.316 33.4437 135 34.2068 135 35.0025C135 35.7981 135.316 36.5612 135.879 37.1238C136.441 37.6864 137.204 38.0025 138 38.0025H129C129.796 38.0025 130.559 37.6864 131.121 37.1238C131.684 36.5612 132 35.7981 132 35.0025C132 34.2068 131.684 33.4437 131.121 32.8811C130.559 32.3185 129.796 32.0025 129 32.0025H138Z" fill="black"/>
<path d="M216 572.002H215C215 571.737 214.895 571.483 214.707 571.296C214.614 571.202 214.504 571.128 214.383 571.078C214.262 571.028 214.131 571.002 214 571.002H210C209.735 571.002 209.48 571.108 209.293 571.295C209.105 571.483 209 571.737 209 572.002H205C205 571.737 204.895 571.483 204.707 571.296C204.614 571.202 204.504 571.129 204.383 571.078C204.261 571.028 204.131 571.002 204 571.002H200C199.735 571.002 199.48 571.108 199.293 571.295C199.105 571.483 199 571.737 199 572.002H195C195 571.737 194.895 571.483 194.708 571.296C194.615 571.202 194.505 571.128 194.383 571.078C194.262 571.028 194.132 571.002 194 571.002H190C189.735 571.002 189.48 571.108 189.293 571.295C189.105 571.483 189 571.737 189 572.002H185C185 571.737 184.895 571.483 184.708 571.296C184.615 571.202 184.504 571.128 184.383 571.078C184.262 571.028 184.131 571.002 184 571.002H180C179.735 571.002 179.48 571.108 179.293 571.295C179.105 571.483 179 571.737 179 572.002H175C175 571.737 174.895 571.483 174.707 571.296C174.519 571.108 174.265 571.003 174 571.002H170C169.735 571.002 169.48 571.108 169.293 571.295C169.105 571.483 169 571.737 169 572.002H165C165 571.737 164.895 571.483 164.707 571.296C164.614 571.202 164.504 571.128 164.383 571.078C164.262 571.028 164.131 571.002 164 571.002H160C159.735 571.002 159.48 571.108 159.293 571.295C159.105 571.483 159 571.737 159 572.002H155C155 571.737 154.895 571.483 154.707 571.296C154.519 571.108 154.265 571.003 154 571.002H150C149.735 571.002 149.48 571.108 149.293 571.295C149.105 571.483 149 571.737 149 572.002H145C145 571.737 144.895 571.483 144.707 571.296C144.614 571.202 144.504 571.128 144.383 571.078C144.262 571.028 144.131 571.002 144 571.002H140C139.735 571.002 139.48 571.108 139.293 571.295C139.105 571.483 139 571.737 139 572.002H135C135 571.737 134.895 571.483 134.708 571.296C134.615 571.203 134.505 571.129 134.383 571.078C134.262 571.028 134.131 571.002 134 571.002H130C129.735 571.002 129.48 571.108 129.293 571.295C129.105 571.483 129 571.737 129 572.002H125C125 571.737 124.895 571.483 124.707 571.296C124.614 571.202 124.504 571.128 124.383 571.078C124.261 571.028 124.131 571.002 124 571.002H121C121.005 568.596 120.523 566.213 119.585 563.996C118.682 561.858 117.372 559.915 115.728 558.276C114.089 556.632 112.146 555.322 110.007 554.418C107.79 553.48 105.407 552.998 103 553.002L203 366.002C200.593 365.998 198.21 366.479 195.993 367.417C193.854 368.32 191.911 369.63 190.272 371.274C188.628 372.914 187.318 374.857 186.415 376.995C185.477 379.212 184.995 381.595 185 384.002H182C181.735 384.002 181.48 384.108 181.293 384.295C181.105 384.483 181 384.737 181 385.002H177C177 384.871 176.975 384.741 176.925 384.62C176.874 384.499 176.8 384.389 176.707 384.296C176.614 384.203 176.505 384.129 176.383 384.078C176.262 384.028 176.132 384.002 176 384.002H172C171.735 384.002 171.48 384.108 171.293 384.295C171.105 384.483 171 384.737 171 385.002H167C167 384.871 166.975 384.741 166.925 384.62C166.874 384.499 166.8 384.389 166.707 384.296C166.614 384.203 166.504 384.129 166.383 384.079C166.262 384.028 166.131 384.002 166 384.002H162C161.735 384.002 161.48 384.108 161.293 384.295C161.105 384.483 161 384.737 161 385.002H157C157 384.871 156.975 384.741 156.925 384.62C156.874 384.499 156.8 384.389 156.707 384.296C156.614 384.203 156.505 384.129 156.384 384.078C156.262 384.028 156.132 384.002 156 384.002H152C151.735 384.002 151.48 384.108 151.293 384.295C151.105 384.483 151 384.737 151 385.002H147C147 384.871 146.975 384.741 146.924 384.62C146.874 384.499 146.801 384.389 146.708 384.296C146.615 384.203 146.505 384.129 146.383 384.079C146.262 384.028 146.131 384.002 146 384.002H142C141.735 384.002 141.48 384.108 141.293 384.295C141.105 384.483 141 384.737 141 385.002H137C137 384.871 136.975 384.741 136.925 384.62C136.875 384.499 136.801 384.389 136.708 384.296C136.615 384.203 136.505 384.129 136.383 384.078C136.262 384.028 136.132 384.002 136 384.002H132C131.735 384.002 131.48 384.108 131.293 384.295C131.105 384.483 131 384.737 131 385.002H127C127 384.871 126.975 384.741 126.925 384.62C126.874 384.499 126.8 384.389 126.707 384.296C126.614 384.203 126.504 384.129 126.383 384.079C126.262 384.028 126.131 384.002 126 384.002H122C121.735 384.002 121.48 384.108 121.293 384.295C121.105 384.483 121 384.737 121 385.002H117C117 384.871 116.975 384.741 116.925 384.62C116.875 384.499 116.801 384.389 116.708 384.296C116.615 384.203 116.505 384.129 116.384 384.078C116.262 384.028 116.132 384.002 116 384.002H112C111.735 384.002 111.48 384.108 111.293 384.295C111.105 384.483 111 384.737 111 385.002H107C107 384.871 106.975 384.741 106.924 384.62C106.874 384.499 106.8 384.389 106.707 384.296C106.614 384.203 106.504 384.129 106.383 384.079C106.262 384.028 106.131 384.002 106 384.002H102C101.735 384.002 101.48 384.108 101.293 384.295C101.105 384.483 101 384.737 101 385.002H97C97.0004 384.871 96.9748 384.741 96.9247 384.62C96.8745 384.499 96.8009 384.389 96.708 384.296C96.6153 384.203 96.505 384.129 96.3835 384.078C96.2619 384.028 96.1316 384.002 96 384.002H92C91.7348 384.002 91.4804 384.108 91.2929 384.295C91.1054 384.483 91 384.737 91 385.002H90C90.0047 383.294 89.6705 381.602 89.0169 380.025C88.3632 378.447 87.4031 377.014 86.192 375.809C84.9877 374.599 83.5552 373.639 81.9773 372.985C80.3995 372.332 78.7078 371.998 77 372.002L91 40.0025C90.995 37.3281 91.5297 34.6803 92.572 32.2174C93.5757 29.841 95.0313 27.6821 96.858 25.8605C98.6797 24.0335 100.839 22.5779 103.216 21.5745C105.678 20.5317 108.326 19.997 111 20.0025H208C210.674 19.9969 213.322 20.5316 215.785 21.5745C218.162 22.5781 220.321 24.0338 222.143 25.8605C223.97 27.682 225.426 29.8409 226.43 32.2174C227.472 34.6804 228.006 37.3283 228 40.0025V559.041C224.745 559.287 221.703 560.754 219.483 563.147C217.241 565.551 215.996 568.716 216 572.002ZM98 32.0025C97.2043 32.0025 96.4413 32.3185 95.8786 32.8811C95.316 33.4437 95 34.2068 95 35.0025C95 35.7981 95.316 36.5612 95.8786 37.1238C96.4413 37.6864 97.2043 38.0025 98 38.0025H89C89.7956 38.0025 90.5587 37.6864 91.1213 37.1238C91.6839 36.5612 92 35.7981 92 35.0025C92 34.2068 91.6839 33.4437 91.1213 32.8811C90.5587 32.3185 89.7956 32.0025 89 32.0025H98Z" fill="black"/>
<path d="M370 701.503H1.61546e-05V585.002C1.708 585.007 3.39995 584.673 4.97792 584.019C6.55589 583.366 7.98855 582.405 9.19301 581.194C10.4038 579.99 11.3637 578.558 12.0172 576.98C12.6706 575.402 13.0047 573.71 13 572.002C13 571.835 13 571.667 12.991 571.502H27.134C27.0462 571.654 27 571.827 27 572.002C27 572.268 27.1054 572.522 27.2929 572.709C27.4805 572.897 27.7348 573.002 28 573.002H32C32.2652 573.002 32.5196 572.897 32.7071 572.709C32.8946 572.522 33 572.268 33 572.002C33.0003 571.827 32.9544 571.655 32.867 571.502H37.135C37.0472 571.654 37 571.827 37 572.002C37 572.268 37.1064 572.522 37.2939 572.709C37.4814 572.897 37.7358 573.002 38.001 573.002H42.001C42.2662 573.002 42.5206 572.897 42.7081 572.709C42.8957 572.522 43 572.268 43 572.002C43 571.827 42.9548 571.654 42.867 571.502H47.135C47.0472 571.654 47.0013 571.827 47.002 572.002C47.002 572.268 47.1074 572.522 47.2949 572.709C47.4825 572.897 47.7368 573.002 48.002 573.002H52.002C52.2672 573.002 52.5216 572.897 52.7091 572.709C52.8967 572.522 53.002 572.268 53.002 572.002C53.002 571.827 52.9558 571.654 52.868 571.502H57.138C57.0496 571.654 57.003 571.827 57.003 572.002C57.003 572.268 57.1084 572.522 57.2959 572.709C57.4835 572.897 57.7378 573.002 58.003 573.002H62.003C62.2682 573.002 62.5226 572.897 62.7101 572.709C62.8976 572.522 63.003 572.268 63.003 572.002C63.003 571.827 62.9568 571.654 62.869 571.502H67.138C67.0502 571.654 67.0041 571.827 67.004 572.002C67.004 572.268 67.1094 572.522 67.2969 572.709C67.4844 572.897 67.7388 573.002 68.004 573.002H72.004C72.2693 573.002 72.5236 572.897 72.7111 572.709C72.8987 572.522 73.004 572.268 73.004 572.002C73.004 571.827 72.9578 571.654 72.87 571.502H77.138C77.0502 571.654 77.0041 571.827 77.004 572.002C77.004 572.268 77.1094 572.522 77.2969 572.709C77.4844 572.897 77.7388 573.002 78.004 573.002H82.004C82.2693 573.002 82.5236 572.897 82.7111 572.709C82.8987 572.522 83.004 572.268 83.004 572.002C83.004 571.827 82.9578 571.654 82.87 571.502H87.137C87.0493 571.654 87.003 571.827 87.003 572.002C87.003 572.268 87.1084 572.522 87.2959 572.709C87.4835 572.897 87.7378 573.002 88.003 573.002H92.003C92.2682 573.002 92.5226 572.897 92.7101 572.709C92.8976 572.522 93.003 572.268 93.003 572.002C93.003 571.827 92.9568 571.654 92.869 571.502H97.138C97.0502 571.654 97.0041 571.827 97.004 572.002C97.004 572.268 97.1094 572.522 97.2969 572.709C97.4844 572.897 97.7388 573.002 98.004 573.002H102.004C102.269 573.002 102.524 572.897 102.711 572.709C102.899 572.522 103.004 572.268 103.004 572.002C103.004 571.827 102.958 571.654 102.87 571.502H107.138C107.05 571.654 107.003 571.827 107.003 572.002C107.003 572.268 107.108 572.522 107.296 572.709C107.483 572.897 107.738 573.002 108.003 573.002H112.003C112.268 573.002 112.523 572.897 112.71 572.709C112.898 572.522 113.003 572.268 113.003 572.002C113.003 571.827 112.957 571.654 112.869 571.502H117.139C117.051 571.654 117.004 571.827 117.004 572.002C117.004 572.268 117.109 572.522 117.297 572.709C117.484 572.897 117.739 573.002 118.004 573.002H121.114C121.6 577.383 123.68 581.431 126.958 584.377C130.261 587.357 134.552 589.005 139 589.002H233C237.45 589.006 241.743 587.358 245.047 584.377C248.325 581.431 250.404 577.383 250.89 573.002H254C254.265 573.002 254.52 572.897 254.707 572.709C254.895 572.522 255 572.268 255 572.002C255 571.827 254.954 571.654 254.866 571.502H259.135C259.047 571.654 259 571.827 259 572.002C259 572.268 259.106 572.522 259.294 572.709C259.481 572.897 259.736 573.002 260.001 573.002H264.001C264.266 573.002 264.521 572.897 264.708 572.709C264.896 572.522 265 572.268 265 572.002C265 571.827 264.955 571.654 264.867 571.502H269.136C269.048 571.654 269.002 571.827 269.002 572.002C269.002 572.268 269.107 572.522 269.295 572.709C269.482 572.897 269.737 573.002 270.002 573.002H274.002C274.267 573.002 274.522 572.897 274.709 572.709C274.897 572.522 275.002 572.268 275.002 572.002C275.002 571.827 274.956 571.654 274.868 571.502H279.137C279.049 571.654 279.003 571.827 279.003 572.002C279.003 572.268 279.108 572.522 279.296 572.709C279.483 572.897 279.738 573.002 280.003 573.002H284.003C284.268 573.002 284.523 572.897 284.71 572.709C284.898 572.522 285.003 572.268 285.003 572.002C285.003 571.827 284.957 571.654 284.869 571.502H289.138C289.05 571.654 289.004 571.827 289.004 572.002C289.004 572.268 289.109 572.522 289.297 572.709C289.484 572.897 289.739 573.002 290.004 573.002H294.004C294.269 573.002 294.524 572.897 294.711 572.709C294.899 572.522 295.004 572.268 295.004 572.002C295.004 571.827 294.958 571.654 294.87 571.502H299.138C299.05 571.654 299.004 571.827 299.004 572.002C299.004 572.268 299.109 572.522 299.297 572.709C299.484 572.897 299.739 573.002 300.004 573.002H304.004C304.269 573.002 304.524 572.897 304.711 572.709C304.899 572.522 305.004 572.268 305.004 572.002C305.004 571.827 304.958 571.654 304.87 571.502H309.137C309.049 571.654 309.003 571.827 309.003 572.002C309.003 572.268 309.108 572.522 309.296 572.709C309.483 572.897 309.738 573.002 310.003 573.002H314.003C314.268 573.002 314.523 572.897 314.71 572.709C314.898 572.522 315.003 572.268 315.003 572.002C315.003 571.827 314.957 571.654 314.869 571.502H319.137C319.049 571.654 319.003 571.827 319.003 572.002C319.003 572.268 319.108 572.522 319.296 572.709C319.483 572.897 319.738 573.002 320.003 573.002H324.003C324.268 573.002 324.523 572.897 324.71 572.709C324.898 572.522 325.003 572.268 325.003 572.002C325.003 571.827 324.957 571.654 324.869 571.502H329.137C329.049 571.654 329.003 571.827 329.003 572.002C329.003 572.268 329.108 572.522 329.296 572.709C329.483 572.897 329.738 573.002 330.003 573.002H334.003C334.268 573.002 334.523 572.897 334.71 572.709C334.898 572.522 335.003 572.268 335.003 572.002C335.003 571.827 334.957 571.655 334.869 571.502H339.138C339.05 571.654 339.004 571.827 339.004 572.002C339.004 572.268 339.109 572.522 339.297 572.709C339.484 572.897 339.739 573.002 340.004 573.002H344.004C344.269 573.002 344.524 572.897 344.711 572.709C344.899 572.522 345.004 572.268 345.004 572.002C345.004 571.827 344.958 571.654 344.87 571.502H358.014C358.008 571.66 358.005 571.828 358.005 572.002C358.001 575.289 359.246 578.454 361.488 580.857C363.707 583.25 366.747 584.716 370 584.964V701.503Z" fill="black"/>
<path d="M268 701.503H116L119 633.003C120.708 633.007 122.4 632.673 123.978 632.019C125.556 631.366 126.989 630.406 128.193 629.195C129.404 627.99 130.364 626.558 131.017 624.98C131.671 623.402 132.005 621.71 132 620.003C132 619.836 132 619.667 131.991 619.503H133.134C133.046 619.655 133 619.827 133 620.003C133 620.268 133.105 620.522 133.293 620.71C133.48 620.897 133.735 621.003 134 621.003H138C138.265 621.003 138.52 620.897 138.707 620.71C138.895 620.522 139 620.268 139 620.003C139 619.827 138.954 619.655 138.867 619.503H143.135C143.047 619.655 143.001 619.827 143.001 620.003C143.001 620.268 143.106 620.522 143.294 620.71C143.481 620.897 143.736 621.003 144.001 621.003H148.001C148.266 621.003 148.521 620.897 148.708 620.71C148.896 620.522 149.001 620.268 149.001 620.003C149.001 619.827 148.955 619.655 148.867 619.503H153.135C153.047 619.654 153.001 619.827 153.002 620.003C153.002 620.268 153.107 620.522 153.295 620.71C153.482 620.897 153.737 621.003 154.002 621.003H158.002C158.267 621.003 158.522 620.897 158.709 620.71C158.897 620.522 159.002 620.268 159.002 620.003C159.002 619.827 158.956 619.655 158.868 619.503H163.138C163.05 619.654 163.003 619.827 163.003 620.003C163.003 620.268 163.108 620.522 163.296 620.71C163.483 620.897 163.738 621.003 164.003 621.003H168.003C168.268 621.003 168.523 620.897 168.71 620.71C168.898 620.522 169.003 620.268 169.003 620.003C169.003 619.827 168.957 619.655 168.869 619.503H173.138C173.05 619.655 173.004 619.827 173.004 620.003C173.004 620.268 173.109 620.522 173.297 620.71C173.484 620.897 173.739 621.003 174.004 621.003H178.004C178.269 621.003 178.524 620.897 178.711 620.71C178.899 620.522 179.004 620.268 179.004 620.003C179.004 619.827 178.958 619.655 178.87 619.503H183.138C183.05 619.655 183.004 619.827 183.004 620.003C183.004 620.268 183.109 620.522 183.297 620.71C183.484 620.897 183.739 621.003 184.004 621.003H188.004C188.269 621.003 188.524 620.897 188.711 620.71C188.899 620.522 189.004 620.268 189.004 620.003C189.004 619.827 188.958 619.655 188.87 619.503H193.137C193.049 619.655 193.003 619.827 193.003 620.003C193.003 620.268 193.108 620.522 193.296 620.71C193.483 620.897 193.738 621.003 194.003 621.003H198.003C198.268 621.003 198.523 620.897 198.71 620.71C198.898 620.522 199.003 620.268 199.003 620.003C199.003 619.827 198.957 619.655 198.869 619.503H203.138C203.05 619.655 203.004 619.827 203.004 620.003C203.004 620.268 203.109 620.522 203.297 620.71C203.484 620.897 203.739 621.003 204.004 621.003H208.004C208.269 621.003 208.524 620.897 208.711 620.71C208.899 620.522 209.004 620.268 209.004 620.003C209.004 619.827 208.958 619.655 208.87 619.503H213.138C213.05 619.654 213.003 619.827 213.003 620.003C213.003 620.268 213.108 620.522 213.296 620.71C213.483 620.897 213.738 621.003 214.003 621.003H218.003C218.268 621.003 218.523 620.897 218.71 620.71C218.898 620.522 219.003 620.268 219.003 620.003C219.003 619.827 218.957 619.655 218.869 619.503H223.139C223.051 619.654 223.004 619.827 223.004 620.003C223.004 620.268 223.109 620.522 223.297 620.71C223.484 620.897 223.739 621.003 224.004 621.003H227.114C227.6 625.383 229.68 629.431 232.958 632.378C236.261 635.357 136.552 589.005 141 589.002H143C147.45 589.006 151.743 587.358 155.047 584.377C158.325 581.431 160.404 577.383 160.89 573.002H164C164.265 573.002 164.52 572.897 164.707 572.709C164.895 572.522 165 572.268 165 572.002C165 571.827 164.954 571.654 164.866 571.502H169.135C169.047 571.654 169.001 571.827 169.001 572.002C169.001 572.268 169.106 572.522 169.294 572.709C169.481 572.897 169.736 573.002 170.001 573.002H174.001C174.266 573.002 174.521 572.897 174.708 572.709C174.896 572.522 175.001 572.268 175.001 572.002C175.001 571.827 174.955 571.654 174.867 571.502H179.136C179.048 571.654 179.002 571.827 179.002 572.002C179.002 572.268 179.107 572.522 179.295 572.709C179.482 572.897 179.737 573.002 180.002 573.002H184.002C184.267 573.002 184.522 572.897 184.709 572.709C184.897 572.522 185.002 572.268 185.002 572.002C185.002 571.827 184.956 571.654 184.868 571.502H189.137C189.049 571.654 189.003 571.827 189.003 572.002C189.003 572.268 189.108 572.522 189.296 572.709C189.483 572.897 189.738 573.002 190.003 573.002H194.003C194.268 573.002 194.523 572.897 194.71 572.709C194.898 572.522 195.003 572.268 195.003 572.002C195.003 571.827 194.957 571.654 194.869 571.502H199.138C199.05 571.654 199.004 571.827 199.004 572.002C199.004 572.268 199.109 572.522 199.297 572.709C199.484 572.897 199.739 573.002 200.004 573.002H204.004C204.269 573.002 204.524 572.897 204.711 572.709C204.899 572.522 205.004 572.268 205.004 572.002C205.004 571.827 204.958 571.654 204.87 571.502H209.138C209.05 571.654 209.004 571.827 209.004 572.002C209.004 572.268 209.109 572.522 209.297 572.709C209.484 572.897 209.739 573.002 210.004 573.002H214.004C214.269 573.002 214.524 572.897 214.711 572.709C214.899 572.522 215.004 572.268 215.004 572.002C215.004 571.827 214.958 571.654 214.87 571.502H219.137C219.049 571.654 219.003 571.827 219.003 572.002C219.003 572.268 219.108 572.522 219.296 572.709C219.483 572.897 219.738 573.002 220.003 573.002H224.003C224.268 573.002 224.523 572.897 224.71 572.709C224.898 572.522 225.003 572.268 225.003 572.002C225.003 571.827 224.957 571.654 224.869 571.502H229.137C229.049 571.654 229.003 571.827 229.003 572.002C229.003 572.268 229.108 572.522 229.296 572.709C229.483 572.897 229.738 573.002 230.003 573.002H234.003C234.268 573.002 234.523 572.897 234.71 572.709C234.898 572.522 235.003 572.268 235.003 572.002C235.003 571.827 234.957 571.654 234.869 571.502H239.137C239.049 571.654 239.003 571.827 239.003 572.002C239.003 572.268 239.108 572.522 239.296 572.709C239.483 572.897 239.738 573.002 240.003 573.002H244.003C244.268 573.002 244.523 572.897 244.71 572.709C244.898 572.522 245.003 572.268 245.003 572.002C245.003 571.827 244.957 571.655 244.869 571.502H249.138C249.05 571.654 249.004 571.827 249.004 572.002C249.004 572.268 249.109 572.522 249.297 572.709C249.484 572.897 249.739 573.002 250.004 573.002H254.004C254.269 573.002 254.524 572.897 254.711 572.709C254.899 572.522 255.004 572.268 255.004 572.002C255.004 571.827 254.958 571.654 254.87 571.502H256.014C256.008 571.66 256.005 571.828 256.005 572.002C256.001 575.289 257.246 578.454 259.488 580.857C261.707 583.25 264.747 584.716 268 584.964V701.503Z" fill="black"/>
<path d="M228 701.503H76L79 633.003C80.708 633.007 82.3999 632.673 83.9779 632.019C85.5559 631.366 86.9885 630.406 88.193 629.195C89.4038 627.99 90.3637 626.558 91.0172 624.98C91.6706 623.402 92.0047 621.71 92 620.003C92 619.836 92 619.667 91.991 619.503H93.134C93.0462 619.655 93 619.827 93 620.003C93 620.268 93.1054 620.522 93.2929 620.71C93.4805 620.897 93.7348 621.003 94 621.003H98C98.2652 621.003 98.5196 620.897 98.7071 620.71C98.8946 620.522 99 620.268 99 620.003C99.0003 619.827 98.9544 619.655 98.867 619.503H103.135C103.047 619.655 103.001 619.827 103.001 620.003C103.001 620.268 103.106 620.522 103.294 620.71C103.481 620.897 103.736 621.003 104.001 621.003H108.001C108.266 621.003 108.521 620.897 108.708 620.71C108.896 620.522 109.001 620.268 109.001 620.003C109.001 619.827 108.955 619.655 108.867 619.503H113.135C113.047 619.654 113.001 619.827 113.002 620.003C113.002 620.268 113.107 620.522 113.295 620.71C113.482 620.897 113.737 621.003 114.002 621.003H118.002C118.267 621.003 118.522 620.897 118.709 620.71C118.897 620.522 119.002 620.268 119.002 620.003C119.002 619.827 118.956 619.655 118.868 619.503H123.138C123.05 619.654 123.003 619.827 123.003 620.003C123.003 620.268 123.108 620.522 123.296 620.71C123.483 620.897 123.738 621.003 124.003 621.003H128.003C128.268 621.003 128.523 620.897 128.71 620.71C128.898 620.522 129.003 620.268 129.003 620.003C129.003 619.827 128.957 619.655 128.869 619.503H133.138C133.05 619.655 133.004 619.827 133.004 620.003C133.004 620.268 133.109 620.522 133.297 620.71C133.484 620.897 133.739 621.003 134.004 621.003H138.004C138.269 621.003 138.524 620.897 138.711 620.71C138.899 620.522 139.004 620.268 139.004 620.003C139.004 619.827 138.958 619.655 138.87 619.503H143.138C143.05 619.655 143.004 619.827 143.004 620.003C143.004 620.268 143.109 620.522 143.297 620.71C143.484 620.897 143.739 621.003 144.004 621.003H148.004C148.269 621.003 148.524 620.897 148.711 620.71C148.899 620.522 149.004 620.268 149.004 620.003C149.004 619.827 148.958 619.655 148.87 619.503H153.137C153.049 619.655 153.002 619.827 153.002 620.003C153.002 620.268 153.107 620.522 153.295 620.71C153.482 620.897 153.737 621.003 154.002 621.003H158.002C158.267 621.003 158.522 620.897 158.709 620.71C158.897 620.522 159.002 620.268 159.002 620.003C159.002 619.827 158.957 619.655 158.869 619.503H163.138C163.05 619.655 163.004 619.827 163.004 620.003C163.004 620.268 163.108 620.522 163.296 620.71C163.483 620.897 163.739 621.003 164.004 621.003H168.004C168.269 621.003 168.524 620.897 168.711 620.71C168.899 620.522 169.004 620.268 169.004 620.003C169.004 619.827 168.957 619.655 168.869 619.503H173.138C173.05 619.654 173.003 619.827 173.003 620.003C173.003 620.268 173.109 620.522 173.297 620.71C173.484 620.897 173.738 621.003 174.003 621.003H178.003C178.268 621.003 178.523 620.897 178.71 620.71C178.898 620.522 179.003 620.268 179.003 620.003C179.003 619.827 178.958 619.655 178.87 619.503H183.138C183.05 619.655 183.004 619.827 183.004 620.003C183.004 620.268 183.109 620.522 183.297 620.71C183.484 620.897 183.739 621.003 184.004 621.003H187.114C187.6 625.383 189.68 629.431 192.958 632.378C196.261 635.357 96.5518 589.005 101 589.002H103C107.45 589.006 111.743 587.358 115.047 584.377C118.325 581.431 120.404 577.383 120.89 573.002H124C124.265 573.002 124.52 572.897 124.707 572.709C124.895 572.522 125 572.268 125 572.002C125 571.827 124.954 571.654 124.866 571.502H129.135C129.047 571.654 129.001 571.827 129.001 572.002C129.001 572.268 129.106 572.522 129.294 572.709C129.481 572.897 129.736 573.002 130.001 573.002H134.001C134.266 573.002 134.521 572.897 134.708 572.709C134.896 572.522 135.001 572.268 135.001 572.002C135.001 571.827 134.955 571.654 134.867 571.502H139.136C139.048 571.654 139.002 571.827 139.002 572.002C139.002 572.268 139.107 572.522 139.295 572.709C139.482 572.897 139.737 573.002 140.002 573.002H144.002C144.267 573.002 144.522 572.897 144.709 572.709C144.897 572.522 145.002 572.268 145.002 572.002C145.002 571.827 144.956 571.654 144.868 571.502H149.137C149.049 571.654 149.003 571.827 149.003 572.002C149.003 572.268 149.108 572.522 149.296 572.709C149.483 572.897 149.738 573.002 150.003 573.002H154.003C154.268 573.002 154.523 572.897 154.71 572.709C154.898 572.522 155.003 572.268 155.003 572.002C155.003 571.827 154.957 571.654 154.869 571.502H159.138C159.05 571.654 159.004 571.827 159.004 572.002C159.004 572.268 159.109 572.522 159.297 572.709C159.484 572.897 159.739 573.002 160.004 573.002H164.004C164.269 573.002 164.524 572.897 164.711 572.709C164.899 572.522 165.004 572.268 165.004 572.002C165.004 571.827 164.958 571.654 164.87 571.502H169.138C169.05 571.654 169.004 571.827 169.004 572.002C169.004 572.268 169.109 572.522 169.297 572.709C169.484 572.897 169.739 573.002 170.004 573.002H174.004C174.269 573.002 174.524 572.897 174.711 572.709C174.899 572.522 175.004 572.268 175.004 572.002C175.004 571.827 174.958 571.654 174.87 571.502H179.137C179.049 571.654 179.002 571.827 179.002 572.002C179.002 572.268 179.107 572.522 179.295 572.709C179.482 572.897 179.737 573.002 180.002 573.002H184.002C184.267 573.002 184.522 572.897 184.709 572.709C184.897 572.522 185.002 572.268 185.002 572.002C185.002 571.827 184.957 571.654 184.869 571.502H189.137C189.049 571.654 189.003 571.827 189.003 572.002C189.003 572.268 189.108 572.522 189.296 572.709C189.483 572.897 189.738 573.002 190.003 573.002H194.003C194.268 573.002 194.523 572.897 194.71 572.709C194.898 572.522 195.003 572.268 195.003 572.002C195.003 571.827 194.957 571.654 194.869 571.502H199.138C199.05 571.654 199.003 571.827 199.003 572.002C199.003 572.268 199.109 572.522 199.297 572.709C199.484 572.897 199.738 573.002 200.003 573.002H204.003C204.268 573.002 204.523 572.897 204.71 572.709C204.898 572.522 205.003 572.268 205.003 572.002C205.003 571.827 204.957 571.655 204.87 571.502H209.138C209.05 571.654 209.004 571.827 209.004 572.002C209.004 572.268 209.109 572.522 209.297 572.709C209.484 572.897 209.739 573.002 210.004 573.002H214.004C214.269 573.002 214.524 572.897 214.711 572.709C214.899 572.522 215.004 572.268 215.004 572.002C215.004 571.827 214.958 571.654 214.87 571.502H216.014C216.008 571.66 216.005 571.828 216.005 572.002C216.001 575.289 217.246 578.454 219.488 580.857C221.707 583.25 224.747 584.716 228 584.964V701.503Z" fill="black"/>
</svg>
