<svg width="25" height="18" viewBox="0 0 25 18" fill="none" xmlns="http://www.w3.org/2000/svg">
<path d="M16.6667 16.5001C16.6667 17.3285 15.9951 18.0001 15.1667 18.0001L1.5 18.0001C0.671571 18.0001 -1.38332e-09 17.3285 -1.31719e-09 16.5001V16.5001C-1.25105e-09 15.6716 0.671573 15.0001 1.5 15.0001L15.1667 15.0001C15.9951 15.0001 16.6667 15.6716 16.6667 16.5001V16.5001ZM25 9.00006C25 9.82849 24.3284 10.5001 23.5 10.5001L1.5 10.5001C0.671573 10.5001 -7.84598e-10 9.82849 -7.18465e-10 9.00006V9.00006C-6.52332e-10 8.17163 0.671573 7.50006 1.5 7.50006L23.5 7.50006C24.3284 7.50006 25 8.17163 25 9.00006V9.00006ZM16.6667 1.50006C16.6667 2.32849 15.9951 3.00006 15.1667 3.00006L1.5 3.00006C0.671571 3.00006 -1.85877e-10 2.32849 -1.19744e-10 1.50006V1.50006C0 0.671634 0.671573 6.10351e-05 1.5 6.1035e-05L15.1667 6.10339e-05C15.9951 6.10339e-05 16.6667 0.671634 16.6667 1.50006V1.50006Z" fill="#7F8489"/>
</svg>
