<svg width="42" height="23" viewBox="0 0 42 23" fill="none" xmlns="http://www.w3.org/2000/svg">
<path d="M42 11.4766C42 5.15275 36.8667 0 30.5667 0C30.2867 0 30.0533 1.77995e-07 29.7733 0.0468434H11.4333C5.13333 0.0468434 0 5.19959 0 11.5234C0 17.8473 5.13333 23 11.4333 23H30.5667C30.7067 23 30.8 23 30.94 22.9532C37.1 22.7658 42 17.7067 42 11.4766ZM30.5667 20.1426C25.8067 20.1426 21.9333 16.2546 21.9333 11.4766C21.9333 6.69858 25.8067 2.81059 30.5667 2.81059C35.3267 2.81059 39.2 6.69858 39.2 11.4766C39.2 16.2546 35.3267 20.1426 30.5667 20.1426Z" fill="#AE00FF"/>
</svg>
