<svg width="24" height="22" viewBox="0 0 24 22" fill="none" xmlns="http://www.w3.org/2000/svg">
<path d="M14.6556 2.3442L14.6109 2.29444H14.544H9.456H9.38911L9.34442 2.3442L7.19312 4.73889H2.4H2.25V4.88889V19.5556V19.7056H2.4H21.6H21.75V19.5556V4.88889V4.73889H21.6H16.8069L14.6556 2.3442ZM6.204 2.59444H6.27089L6.31559 2.54469L8.46689 0.15H15.5331L17.6844 2.54469L17.7291 2.59444H17.796H21.6C22.8346 2.59444 23.85 3.62468 23.85 4.88889V19.5556C23.85 20.8198 22.8346 21.85 21.6 21.85H2.4C1.16543 21.85 0.15 20.8198 0.15 19.5556V4.88889C0.15 3.62468 1.16543 2.59444 2.4 2.59444H6.204ZM15.75 12.2222C15.75 10.1253 14.0654 8.40556 12 8.40556C9.93458 8.40556 8.25 10.1253 8.25 12.2222C8.25 14.3191 9.93458 16.0389 12 16.0389C14.0654 16.0389 15.75 14.3191 15.75 12.2222ZM6.15 12.2222C6.15 8.92912 8.77343 6.26111 12 6.26111C15.2266 6.26111 17.85 8.92912 17.85 12.2222C17.85 15.5153 15.2266 18.1833 12 18.1833C8.77343 18.1833 6.15 15.5153 6.15 12.2222Z" fill="#AE00FF" stroke="#2B2E35" stroke-width="0.3"/>
</svg>
