<svg width="42" height="23" viewBox="0 0 42 23" fill="none" xmlns="http://www.w3.org/2000/svg">
<path d="M0 11.4766C0 5.15281 5.13333 6.10352e-05 11.4333 6.10352e-05C11.7133 6.10352e-05 11.9467 6.12132e-05 12.2267 0.0469044H30.5667C36.8667 0.0469044 42 5.19965 42 11.5235C42 17.8473 36.8667 23.0001 30.5667 23.0001H11.4333C11.2933 23.0001 11.2 23.0001 11.06 22.9532C4.9 22.7658 0 17.7068 0 11.4766ZM11.4333 20.1426C16.1933 20.1426 20.0667 16.2546 20.0667 11.4766C20.0667 6.69864 16.1933 2.81065 11.4333 2.81065C6.67333 2.81065 2.8 6.69864 2.8 11.4766C2.8 16.2546 6.67333 20.1426 11.4333 20.1426Z" fill="#AE00FF"/>
</svg>
