<svg width="17" height="20" viewBox="0 0 17 20" fill="none" xmlns="http://www.w3.org/2000/svg">
<path fill-rule="evenodd" clip-rule="evenodd" d="M4 4L4 9C4 9.47437 4.08257 9.92945 4.23413 10.3517L6 8.58579L6 4C6 2.89543 6.89543 2 8 2C9.10457 2 10 2.89543 10 4V4.58579L11.8094 2.7764C11.2924 1.16576 9.78236 0 8 0C5.79086 0 4 1.79086 4 4ZM2 9C2 10.036 2.26256 11.0106 2.72475 11.861L1.26562 13.3202C0.464628 12.0741 0 10.5913 0 9C0 8.44772 0.447715 8 1 8C1.55229 8 2 8.44772 2 9ZM4.18272 16.0323L2.50789 17.7071C2.11736 18.0976 1.4842 18.0976 1.09367 17.7071C0.70315 17.3166 0.70315 16.6834 1.09367 16.2929L15.0937 2.29289C15.4842 1.90237 16.1174 1.90237 16.5079 2.29289C16.8984 2.68342 16.8984 3.31658 16.5079 3.70711L12 8.21499V9C12 11.2091 10.2091 13 8 13C7.75408 13 7.51334 12.9778 7.27968 12.9353L5.67999 14.535C6.39369 14.8345 7.17752 15 8 15C11.3137 15 14 12.3137 14 9C14 8.44772 14.4477 8 15 8C15.5523 8 16 8.44771 16 9C16 13.0796 12.9463 16.446 9 16.9381V19C9 19.5523 8.55229 20 8 20C7.44772 20 7 19.5523 7 19V16.9381C5.99043 16.8122 5.03928 16.4982 4.18272 16.0323Z" fill="#AE00FF"/>
</svg>
