<svg width="17" height="17" viewBox="0 0 17 17" fill="none" xmlns="http://www.w3.org/2000/svg">
<path  fill-rule="evenodd" clip-rule="evenodd" d="M16.5473 0.444967C15.9432 -0.148322 14.9673 -0.148322 14.3632 0.444967L7.25345 7.42752C6.64935 8.0208 6.64935 8.97919 7.25345 9.57248L14.3632 16.555C14.9673 17.1483 15.9432 17.1483 16.5473 16.555C17.1514 15.9617 17.1514 15.0034 16.5473 14.4101L10.5373 8.49239L16.5473 2.58993C17.1514 1.99664 17.1359 1.02304 16.5473 0.444967Z" fill="#AE00FF"/>
<path  fill-rule="evenodd" clip-rule="evenodd" d="M0.453075 0.444966C1.05718 -0.148322 2.03303 -0.148322 2.63713 0.444966L9.74693 7.42752C10.351 8.0208 10.351 8.97919 9.74693 9.57248L2.63713 16.555C2.03303 17.1483 1.05718 17.1483 0.453075 16.555C-0.151025 15.9617 -0.151025 15.0034 0.453075 14.4101L6.4631 8.49239L0.453075 2.58993C-0.151025 1.99664 -0.135535 1.02304 0.453075 0.444966Z" fill="#AE00FF"/>
</svg>
