<svg width="42" height="23" viewBox="0 0 42 23" fill="none" xmlns="http://www.w3.org/2000/svg">
<path d="M0 11.4766C0 5.15275 5.13333 0 11.4333 0C11.7133 0 11.9467 1.77995e-07 12.2267 0.0468434H30.5667C36.8667 0.0468434 42 5.19959 42 11.5234C42 17.8473 36.8667 23 30.5667 23H11.4333C11.2933 23 11.2 23 11.06 22.9532C4.9 22.7658 0 17.7067 0 11.4766ZM11.4333 20.1426C16.1933 20.1426 20.0667 16.2546 20.0667 11.4766C20.0667 6.69858 16.1933 2.81059 11.4333 2.81059C6.67333 2.81059 2.8 6.69858 2.8 11.4766C2.8 16.2546 6.67333 20.1426 11.4333 20.1426Z" fill="#7F8489"/>
</svg>
