<svg width="24" height="22" viewBox="0 0 24 22" fill="none" xmlns="http://www.w3.org/2000/svg">
<path d="M0.335364 9.64757L4.45145 9.59283L4.75815 9.67349C5.58939 10.1546 6.37191 10.7048 7.10283 11.327C7.63024 11.7764 8.13472 12.2661 8.6134 12.7962C10.0896 10.4081 11.6632 8.21585 13.3257 6.19935C15.1458 3.98985 17.0778 1.98487 19.1071 0.155619L19.5084 6.10352e-05H24L23.0942 1.01119C20.311 4.11948 17.7857 7.33147 15.5041 10.6443C13.2225 13.96 11.1817 17.3823 9.36725 20.9054L8.80258 22.0001L8.28377 20.8852C7.32641 18.8198 6.17986 16.9242 4.81261 15.2304C3.44536 13.5365 1.85453 12.0328 0 10.7538L0.335364 9.64757Z" fill="#AE00FF"/>
</svg>
